<?xml version="1.0" encoding="utf-8"?>
<!-- Generator: Adobe Illustrator 16.0.4, SVG Export Plug-In . SVG Version: 6.00 Build 0)  -->
<!DOCTYPE svg PUBLIC "-//W3C//DTD SVG 1.1//EN" "http://www.w3.org/Graphics/SVG/1.1/DTD/svg11.dtd">
<svg version="1.1" id="Layer_1" xmlns="http://www.w3.org/2000/svg" xmlns:xlink="http://www.w3.org/1999/xlink" x="0px" y="0px"
	 width="100px" height="100px" viewBox="0 0 100 100" enable-background="new 0 0 100 100" xml:space="preserve">
<circle cx="38.54" cy="40.06" r="3.56"/>
<circle cx="59.897" cy="40.06" r="3.56"/>
<path d="M70.576,59.281H27.861c-0.786,0-1.424-0.639-1.424-1.424s0.638-1.424,1.424-1.424h42.715c0.785,0,1.424,0.639,1.424,1.424
	S71.361,59.281,70.576,59.281z"/>
<path fill="none" stroke="#000000" stroke-width="4" stroke-miterlimit="10" d="M92.585,26.535
	c-2.194-6.438-5.789-11.632-15.849-13.868C58.906,8.705,49,24.554,49,24.554S39.094,8.705,21.264,12.667
	c-10.06,2.236-13.655,7.429-15.849,13.868C1.983,36.61,4.83,49.73,13.56,59.334C27.868,75.073,49,85.969,49,85.969
	s21.132-10.896,35.439-26.635C93.169,49.73,96.018,36.61,92.585,26.535z"/>
</svg>
