<?xml version="1.0" encoding="utf-8"?>
<!-- Generator: Adobe Illustrator 16.0.4, SVG Export Plug-In . SVG Version: 6.00 Build 0)  -->
<!DOCTYPE svg PUBLIC "-//W3C//DTD SVG 1.1//EN" "http://www.w3.org/Graphics/SVG/1.1/DTD/svg11.dtd">
<svg version="1.1" id="Layer_1" xmlns="http://www.w3.org/2000/svg" xmlns:xlink="http://www.w3.org/1999/xlink" x="0px" y="0px"
	 width="100px" height="100px" viewBox="0 0 100 100" enable-background="new 0 0 100 100" xml:space="preserve">
<path d="M49.999,69.82c-13.257,0-24.042-10.786-24.042-24.042c0-0.83,0.673-1.503,1.502-1.503c0.83,0,1.503,0.673,1.503,1.503
	c0,11.6,9.438,21.037,21.037,21.037c11.601,0,21.038-9.438,21.038-21.037c0-0.83,0.674-1.503,1.503-1.503s1.502,0.673,1.502,1.503
	C74.042,59.034,63.257,69.82,49.999,69.82z"/>
<circle cx="38.729" cy="34.508" r="3.757"/>
<circle cx="61.27" cy="34.508" r="3.757"/>
<path fill="none" stroke="#000000" stroke-width="4" stroke-miterlimit="10" d="M93.585,27.535
	c-2.194-6.438-5.789-11.632-15.849-13.868C59.906,9.705,50,25.554,50,25.554S40.094,9.705,22.264,13.667
	c-10.06,2.236-13.655,7.429-15.849,13.868C2.983,37.61,5.83,50.73,14.56,60.334C28.868,76.073,50,86.969,50,86.969
	s21.132-10.896,35.439-26.635C94.169,50.73,97.018,37.61,93.585,27.535z"/>
</svg>
