<?xml version="1.0" encoding="utf-8"?>
<!-- Generator: Adobe Illustrator 16.0.4, SVG Export Plug-In . SVG Version: 6.00 Build 0)  -->
<!DOCTYPE svg PUBLIC "-//W3C//DTD SVG 1.1//EN" "http://www.w3.org/Graphics/SVG/1.1/DTD/svg11.dtd">
<svg version="1.1" id="Layer_1" xmlns="http://www.w3.org/2000/svg" xmlns:xlink="http://www.w3.org/1999/xlink" x="0px" y="0px"
	 width="100px" height="100px" viewBox="0 0 100 100" enable-background="new 0 0 100 100" xml:space="preserve">
<circle cx="38.448" cy="38.661" r="3.661"/>
<circle cx="60.414" cy="38.661" r="3.661"/>
<path d="M49.431,73.075C36.511,73.075,26,62.563,26,49.644c0-0.808,0.656-1.464,1.464-1.464h43.933c0.808,0,1.464,0.656,1.464,1.464
	C72.861,62.563,62.351,73.075,49.431,73.075z M28.98,51.108c0.755,10.624,9.638,19.038,20.451,19.038
	c10.813,0,19.695-8.414,20.45-19.038H28.98z"/>
<path fill="none" stroke="#000000" stroke-width="4" stroke-miterlimit="10" d="M93.585,28.535
	c-2.194-6.438-5.789-11.632-15.849-13.868C59.906,10.705,50,26.554,50,26.554s-9.906-15.849-27.736-11.887
	c-10.06,2.236-13.655,7.429-15.849,13.868C2.983,38.61,5.83,51.73,14.56,61.334C28.868,77.073,50,87.969,50,87.969
	s21.132-10.896,35.439-26.635C94.169,51.73,97.018,38.61,93.585,28.535z"/>
</svg>
