<?xml version="1.0" encoding="utf-8"?>
<!-- Generator: Adobe Illustrator 16.0.4, SVG Export Plug-In . SVG Version: 6.00 Build 0)  -->
<!DOCTYPE svg PUBLIC "-//W3C//DTD SVG 1.1//EN" "http://www.w3.org/Graphics/SVG/1.1/DTD/svg11.dtd">
<svg version="1.1" id="Layer_1" xmlns="http://www.w3.org/2000/svg" xmlns:xlink="http://www.w3.org/1999/xlink" x="0px" y="0px"
	 width="100px" height="100px" viewBox="0 0 100 100" enable-background="new 0 0 100 100" xml:space="preserve">
<path d="M65.455,67.545c-0.803,0-1.455-0.651-1.455-1.454C64,58.872,58.127,53,50.91,53c-7.219,0-13.091,5.872-13.091,13.091
	c0,0.803-0.652,1.454-1.455,1.454s-1.455-0.651-1.455-1.454c0-8.822,7.178-16.001,16-16.001c8.822,0,16,7.179,16,16.001
	C66.91,66.894,66.258,67.545,65.455,67.545z"/>
<circle cx="40" cy="37" r="3.636"/>
<circle cx="61.818" cy="37" r="3.636"/>
<path fill="none" stroke="#000000" stroke-width="4" stroke-miterlimit="10" d="M93.585,27.535
	c-2.194-6.438-5.789-11.632-15.849-13.868C59.906,9.705,50,25.554,50,25.554S40.094,9.705,22.264,13.667
	c-10.06,2.236-13.655,7.429-15.849,13.868C2.983,37.61,5.83,50.73,14.56,60.334C28.868,76.073,50,86.969,50,86.969
	s21.132-10.896,35.439-26.635C94.169,50.73,97.018,37.61,93.585,27.535z"/>
</svg>
