<?xml version="1.0" encoding="utf-8"?>
<!-- Generator: Adobe Illustrator 16.0.4, SVG Export Plug-In . SVG Version: 6.00 Build 0)  -->
<!DOCTYPE svg PUBLIC "-//W3C//DTD SVG 1.1//EN" "http://www.w3.org/Graphics/SVG/1.1/DTD/svg11.dtd">
<svg version="1.1" id="Layer_1" xmlns="http://www.w3.org/2000/svg" xmlns:xlink="http://www.w3.org/1999/xlink" x="0px" y="0px"
	 width="100px" height="100px" viewBox="0 0 100 100" enable-background="new 0 0 100 100" xml:space="preserve">
<path d="M34.754,41.997c-5.044,0-9.147-4.104-9.147-9.147c0-0.841,0.683-1.524,1.524-1.524c0.842,0,1.524,0.683,1.524,1.524
	c0,3.363,2.736,6.098,6.098,6.098c3.363,0,6.098-2.735,6.098-6.098c0-0.841,0.683-1.524,1.525-1.524
	c0.841,0,1.524,0.683,1.524,1.524C43.902,37.894,39.799,41.997,34.754,41.997z"/>
<path d="M65.245,41.997c-5.044,0-9.147-4.104-9.147-9.147c0-0.841,0.684-1.524,1.525-1.524c0.841,0,1.524,0.683,1.524,1.524
	c0,3.363,2.735,6.098,6.098,6.098s6.098-2.735,6.098-6.098c0-0.841,0.684-1.524,1.525-1.524c0.841,0,1.524,0.683,1.524,1.524
	C74.393,37.894,70.289,41.997,65.245,41.997z"/>
<path d="M65.245,68.676c-0.841,0-1.524-0.683-1.524-1.524c0-7.565-6.156-13.721-13.721-13.721c-7.565,0-13.721,6.155-13.721,13.721
	c0,0.842-0.683,1.524-1.525,1.524c-0.841,0-1.524-0.683-1.524-1.524c0-9.247,7.523-16.77,16.77-16.77s16.77,7.522,16.77,16.77
	C66.77,67.993,66.086,68.676,65.245,68.676z"/>
<path fill="none" stroke="#000000" stroke-width="4" stroke-miterlimit="10" d="M93.585,27.535
	c-2.194-6.438-5.789-11.632-15.849-13.868C59.906,9.705,50,25.554,50,25.554S40.094,9.705,22.264,13.667
	c-10.06,2.236-13.655,7.429-15.849,13.868C2.983,37.61,5.83,50.73,14.56,60.334C28.868,76.073,50,86.969,50,86.969
	s21.132-10.896,35.439-26.635C94.169,50.73,97.018,37.61,93.585,27.535z"/>
</svg>
