<svg xmlns="http://www.w3.org/2000/svg" xmlns:xlink="http://www.w3.org/1999/xlink" version="1.1" id="Layer_1" x="0px" y="0px" viewBox="0 0 100 100" enable-background="new 0 0 100 100" xml:space="preserve" height="100px" width="100px">
<path d="M50,4c25.364,0,46,20.636,46,46S75.364,96,50,96S4,75.364,4,50S24.636,4,50,4L50,4z M50,0C22.386,0,0,22.386,0,50  s22.386,50,50,50s50-22.386,50-50S77.614,0,50,0L50,0z"/>
<circle cx="35" cy="35" r="5"/>
<circle cx="65" cy="35" r="5"/>
<path d="M80,62H20c-1.104,0-2-0.896-2-2s0.896-2,2-2h60c1.104,0,2,0.896,2,2S81.104,62,80,62z"/>
</svg>