<svg xmlns="http://www.w3.org/2000/svg" xmlns:xlink="http://www.w3.org/1999/xlink" version="1.1" id="Layer_1" x="0px" y="0px" viewBox="0 0 100 100" enable-background="new 0 0 100 100" xml:space="preserve" height="100px" width="100px">
<path d="M50,4c25.364,0,46,20.636,46,46S75.364,96,50,96S4,75.364,4,50S24.636,4,50,4L50,4z M50,0C22.386,0,0,22.386,0,50  s22.386,50,50,50s50-22.386,50-50S77.614,0,50,0L50,0z"/>
<path d="M70,77c-1.104,0-2-0.896-2-2c0-9.925-8.075-18-18-18s-18,8.075-18,18c0,1.104-0.896,2-2,2s-2-0.896-2-2  c0-12.131,9.869-22,22-22s22,9.869,22,22C72,76.104,71.104,77,70,77z"/>
<circle cx="35" cy="35" r="5"/>
<circle cx="65" cy="35" r="5"/>
</svg>