<?xml version="1.0" encoding="utf-8"?>
<!-- Generator: Adobe Illustrator 16.0.4, SVG Export Plug-In . SVG Version: 6.00 Build 0)  -->
<!DOCTYPE svg PUBLIC "-//W3C//DTD SVG 1.1//EN" "http://www.w3.org/Graphics/SVG/1.1/DTD/svg11.dtd">
<svg version="1.1" id="Layer_1" xmlns="http://www.w3.org/2000/svg" xmlns:xlink="http://www.w3.org/1999/xlink" x="0px" y="0px"
	 width="100px" height="100px" viewBox="0 0 100 100" enable-background="new 0 0 100 100" xml:space="preserve">
<path d="M50,4c25.363,0,46,20.636,46,46S75.363,96,50,96C24.636,96,4,75.364,4,50S24.636,4,50,4L50,4z M50,0C22.386,0,0,22.386,0,50
	s22.386,50,50,50c27.613,0,50-22.386,50-50S77.613,0,50,0L50,0z"/>
<path d="M43.584,52.849V28.081c0-0.44-0.372-0.822-0.821-0.822c-0.376,0-0.82,0.382-0.82,0.822v22.833
	c-2.837-1.048-4.773-3.812-4.773-6.794V28.083c0-4.924,3.951-8.803,8.803-8.803h8.057c4.921,0,8.801,3.878,8.801,8.803v16.038
	c0,2.982-1.94,5.746-4.772,6.793V28.082c0-0.441-0.374-0.823-0.822-0.823c-0.445,0-0.819,0.382-0.819,0.823V52.85L43.584,52.849
	L43.584,52.849z"/>
<path d="M50.82,52.849h5.596v30.884c0,1.566-1.197,2.906-2.76,2.906c-1.563,0-2.836-1.34-2.836-2.906V52.849z"/>
<path d="M43.584,52.849h5.672v30.884c0,1.566-1.349,2.906-2.911,2.906c-1.491,0-2.761-1.34-2.761-2.906V52.849z"/>
<path stroke="#FFFFFF" stroke-miterlimit="10" d="M56.414,24.781c0,3.575-2.836,6.491-6.337,6.491c-3.586,0-6.495-2.916-6.495-6.491
	c0-3.578,2.909-6.419,6.495-6.419C53.578,18.358,56.414,21.2,56.414,24.781z"/>
</svg>
