<?xml version="1.0" encoding="utf-8"?>
<!-- Generator: Adobe Illustrator 16.0.4, SVG Export Plug-In . SVG Version: 6.00 Build 0)  -->
<!DOCTYPE svg PUBLIC "-//W3C//DTD SVG 1.1//EN" "http://www.w3.org/Graphics/SVG/1.1/DTD/svg11.dtd">
<svg version="1.1" id="Layer_1" xmlns="http://www.w3.org/2000/svg" xmlns:xlink="http://www.w3.org/1999/xlink" x="0px" y="0px"
	 width="100px" height="100px" viewBox="0 0 100 100" enable-background="new 0 0 100 100" xml:space="preserve">
<path d="M50,4c25.363,0,46,20.636,46,46S75.363,96,50,96C24.636,96,4,75.364,4,50S24.636,4,50,4L50,4z M50,0C22.386,0,0,22.386,0,50
	s22.386,50,50,50c27.613,0,50-22.386,50-50S77.613,0,50,0L50,0z"/>
<path d="M56.258,18.251c0,3.303-2.618,5.997-5.853,5.997c-3.312,0-5.999-2.692-5.999-5.997c0-3.306,2.687-5.93,5.999-5.93
	C53.642,12.319,56.258,14.944,56.258,18.251z"/>
<path d="M44.407,58.215V35.337c0-0.408,0-8.13,0-8.13h11.851c0,0,0.002,7.725,0.002,8.13v22.878H44.407z"/>
<path d="M51.091,58.215h5.169v28.529c0,1.448-1.107,2.685-2.55,2.685s-2.619-1.236-2.619-2.685V58.215z"/>
<path d="M44.407,58.215h5.239v28.529c0,1.448-1.245,2.685-2.688,2.685c-1.377,0-2.551-1.236-2.551-2.685V58.215L44.407,58.215z"/>
<g>
	<path d="M68.035,29.208c-0.96,1.147-2.814,1.216-2.814,1.216L57.2,30.412l-14.398,0.043l-8.021,0.013c0,0-1.861-0.069-2.813-1.217
		c-0.952-1.152-0.665-2.914-0.665-2.914l1.19-6.709c0.476-3.015,4.455-2.395,3.985,0.621l-1.203,6.178h8.121l13.207-0.043h8.121
		l-1.203-6.18c-0.472-3.013,3.508-3.634,3.985-0.619l1.188,6.711C68.698,26.296,68.986,28.056,68.035,29.208z"/>
</g>
</svg>
