<?xml version="1.0" encoding="utf-8"?>
<!-- Generator: Adobe Illustrator 16.0.4, SVG Export Plug-In . SVG Version: 6.00 Build 0)  -->
<!DOCTYPE svg PUBLIC "-//W3C//DTD SVG 1.1//EN" "http://www.w3.org/Graphics/SVG/1.1/DTD/svg11.dtd">
<svg version="1.1" id="Layer_1" xmlns="http://www.w3.org/2000/svg" xmlns:xlink="http://www.w3.org/1999/xlink" x="0px" y="0px"
	 width="100px" height="100px" viewBox="0 0 100 100" enable-background="new 0 0 100 100" xml:space="preserve">
<path d="M50,4c25.363,0,46,20.636,46,46S75.363,96,50,96C24.636,96,4,75.364,4,50S24.636,4,50,4L50,4z M50,0C22.386,0,0,22.386,0,50
	s22.386,50,50,50c27.613,0,50-22.386,50-50S77.613,0,50,0L50,0z"/>
<path d="M56.925,17.375c0,3.304-2.618,5.998-5.853,5.998c-3.312,0-5.999-2.693-5.999-5.998c0-3.305,2.687-5.929,5.999-5.929
	C54.309,11.444,56.925,14.07,56.925,17.375z"/>
<path d="M45.074,57.34V34.462c0-0.408-0.344-0.76-0.758-0.76c-0.348,0-0.758,0.354-0.758,0.76v21.091
	c-2.622-0.968-4.41-3.519-4.41-6.275V34.464c0-4.549,3.65-8.132,8.132-8.132h7.443c4.545,0,8.129,3.583,8.129,8.132v14.813
	c0,2.758-1.791,5.308-4.408,6.275V34.462c0-0.408-0.345-0.76-0.76-0.76c-0.411,0-0.758,0.354-0.758,0.76V57.34H45.074z"/>
<path d="M51.758,57.34h5.169v28.529c0,1.448-1.107,2.685-2.55,2.685s-2.619-1.236-2.619-2.685V57.34z"/>
<path d="M45.074,57.34h5.239v28.529c0,1.448-1.246,2.685-2.689,2.685c-1.376,0-2.55-1.236-2.55-2.685V57.34L45.074,57.34z"/>
</svg>
