<?xml version="1.0" encoding="utf-8"?>
<!-- Generator: Adobe Illustrator 16.0.4, SVG Export Plug-In . SVG Version: 6.00 Build 0)  -->
<!DOCTYPE svg PUBLIC "-//W3C//DTD SVG 1.1//EN" "http://www.w3.org/Graphics/SVG/1.1/DTD/svg11.dtd">
<svg version="1.1" id="Layer_1" xmlns="http://www.w3.org/2000/svg" xmlns:xlink="http://www.w3.org/1999/xlink" x="0px" y="0px"
	 width="100px" height="100px" viewBox="0 0 100 100" enable-background="new 0 0 100 100" xml:space="preserve">
<path d="M50,4c25.363,0,46,20.636,46,46S75.363,96,50,96C24.636,96,4,75.364,4,50S24.636,4,50,4L50,4z M50,0C22.386,0,0,22.386,0,50
	s22.386,50,50,50c27.613,0,50-22.386,50-50S77.613,0,50,0L50,0z"/>
<circle cx="233.501" cy="34.009" r="5.112"/>
<g>
	<path d="M251.535,42.967c-0.96,1.147-2.814,1.215-2.814,1.215l-8.021-0.012l-0.025,3.02l0.007,41.456
		c0,1.579-1.285,2.863-2.863,2.863c-1.584,0-2.87-1.284-2.87-2.863V64.604l-2.894,0.044v24.041c0,1.587-1.285,2.864-2.871,2.864
		c-1.58,0-2.863-1.277-2.863-2.864l0.007-41.455l-0.025-3.021l-8.021,0.013c0,0-1.861-0.07-2.813-1.216
		c-0.952-1.153-0.665-2.914-0.665-2.914l1.19-6.71c0.476-3.014,4.455-2.394,3.985,0.621l-1.203,6.178h1.015
		c0.271-1.209,1.354-2.104,2.638-2.104c1.291,0,2.375,0.895,2.645,2.104h1.824l13.207-0.043h1.824
		c0.27-1.209,1.354-2.106,2.639-2.106c1.289,0,2.373,0.896,2.648,2.106h1.01l-1.203-6.179c-0.472-3.013,3.508-3.634,3.985-0.62
		l1.188,6.711C252.198,40.054,252.486,41.813,251.535,42.967z"/>
</g>
<g>
	<path d="M140.548-53.208l-1.188-6.711c-0.478-3.014-4.457-2.393-3.985,0.62l1.203,6.179h-1.01c-0.275-1.21-1.359-2.106-2.648-2.106
		c-1.285,0-2.369,0.897-2.639,2.106h-1.824l-13.208,0.043h-1.824c-0.268-1.209-1.353-2.104-2.643-2.104
		c-1.285,0-2.369,0.895-2.639,2.104h-1.016l1.203-6.178c0.471-3.015-3.509-3.635-3.984-0.621l-1.189,6.71
		c0,0-0.289,1.761,0.664,2.914c0.952,1.146,2.813,1.216,2.813,1.216l7.261-0.012c0.477-0.111,15.158-0.044,15.158-0.044l8.021,0.012
		c0,0,1.854-0.068,2.814-1.215C140.839-51.448,140.551-53.208,140.548-53.208z"/>
</g>
<path d="M128.072-61.371c0,3.108-2.463,5.642-5.506,5.642c-3.115,0-5.643-2.533-5.643-5.642s2.527-5.577,5.643-5.577
	C125.611-66.95,128.072-64.48,128.072-61.371z"/>
<path d="M116.925-23.776v-21.521c0-0.384-2.142-7.648,2.075-7.648h7.001c4.276,0,2.073,7.266,2.073,7.648v21.521H116.925z"/>
<path d="M56.258,17.804c0,3.304-2.618,5.998-5.853,5.998c-3.312,0-5.999-2.693-5.999-5.998c0-3.305,2.687-5.929,5.999-5.929
	C53.642,11.873,56.258,14.499,56.258,17.804z"/>
<path d="M44.407,57.769V34.891c0-0.408,0-8.13,0-8.13h11.851c0,0,0.002,7.725,0.002,8.13v22.878H44.407z"/>
<path d="M51.091,57.769h5.169v28.529c0,1.448-1.107,2.685-2.55,2.685s-2.619-1.236-2.619-2.685V57.769z"/>
<path d="M44.407,57.769h5.239v28.529c0,1.448-1.245,2.685-2.688,2.685c-1.377,0-2.551-1.236-2.551-2.685V57.769L44.407,57.769z"/>
<g>
	<path d="M68.035,28.762c-0.96,1.147-2.814,1.215-2.814,1.215L57.2,29.966l-14.398,0.043l-8.021,0.013c0,0-1.861-0.069-2.813-1.216
		c-0.952-1.153-0.665-2.914-0.665-2.914l1.19-6.71c0.476-3.014,4.455-2.394,3.985,0.621l-1.203,6.178h1.015
		c0.271-1.209,1.354-2.104,2.638-2.104c1.291,0,2.375,0.896,2.645,2.104h1.824l13.207-0.043h1.824
		c0.27-1.209,1.354-2.106,2.639-2.106c1.289,0,2.373,0.896,2.648,2.106h1.01l-1.203-6.179c-0.472-3.013,3.508-3.634,3.985-0.62
		l1.188,6.711C68.698,25.849,68.986,27.609,68.035,28.762z"/>
</g>
<path d="M43.812,26.24c0,2.088-1.693,3.781-3.781,3.781l0,0c-2.088,0-3.781-1.693-3.781-3.781l0,0c0-2.088,1.693-3.781,3.781-3.781
	l0,0C42.119,22.459,43.812,24.152,43.812,26.24L43.812,26.24z"/>
<path d="M63.82,26.24c0,2.088-1.693,3.781-3.781,3.781l0,0c-2.088,0-3.781-1.693-3.781-3.781l0,0c0-2.088,1.693-3.781,3.781-3.781
	l0,0C62.127,22.459,63.82,24.152,63.82,26.24L63.82,26.24z"/>
</svg>
