<?xml version="1.0" encoding="utf-8"?>
<!-- Generator: Adobe Illustrator 16.0.4, SVG Export Plug-In . SVG Version: 6.00 Build 0)  -->
<!DOCTYPE svg PUBLIC "-//W3C//DTD SVG 1.1//EN" "http://www.w3.org/Graphics/SVG/1.1/DTD/svg11.dtd">
<svg version="1.1" id="Layer_1" xmlns="http://www.w3.org/2000/svg" xmlns:xlink="http://www.w3.org/1999/xlink" x="0px" y="0px"
	 width="100px" height="100px" viewBox="0 0 100 100" enable-background="new 0 0 100 100" xml:space="preserve">
<path d="M50,4c25.363,0,46,20.636,46,46S75.363,96,50,96C24.636,96,4,75.364,4,50S24.636,4,50,4L50,4z M50,0C22.386,0,0,22.386,0,50
	s22.386,50,50,50c27.613,0,50-22.386,50-50S77.613,0,50,0L50,0z"/>
<path d="M43.691,54.582V29.778c0-0.442-0.372-0.824-0.822-0.824c-0.375,0-0.822,0.383-0.822,0.824v22.866
	c-2.842-1.049-4.78-3.816-4.78-6.804v-16.06c0-4.932,3.957-8.816,8.815-8.816h8.069c4.927,0,8.812,3.884,8.812,8.816v16.06
	c0,2.989-1.941,5.755-4.778,6.804V29.778c0-0.442-0.375-0.824-0.823-0.824c-0.445,0-0.821,0.384-0.821,0.824v24.804H43.691z"/>
<path d="M50.938,54.582h5.604V85.51c0,1.568-1.198,2.91-2.764,2.91c-1.564,0-2.84-1.342-2.84-2.91V54.582z"/>
<path d="M43.691,54.582h5.679V85.51c0,1.568-1.349,2.91-2.914,2.91c-1.493,0-2.765-1.342-2.765-2.91V54.582z"/>
<path stroke="#FFFFFF" stroke-miterlimit="10" d="M56.539,20.008c0,3.581-2.838,6.501-6.346,6.501c-3.591,0-6.504-2.919-6.504-6.501
	c0-3.583,2.913-6.429,6.504-6.429C53.701,13.577,56.539,16.423,56.539,20.008z"/>
</svg>
